<?xml version="1.0" encoding="UTF-8"?>
<svg id="svg290" width="85" height="85.002" version="1.1" viewBox="0 0 85 85.002" xmlns="http://www.w3.org/2000/svg" xmlns:cc="http://creativecommons.org/ns#" xmlns:dc="http://purl.org/dc/elements/1.1/" xmlns:rdf="http://www.w3.org/1999/02/22-rdf-syntax-ns#">
 <path id="Black_Circle" d="m42.5 0.50001c-23.159 0-42 18.841-42 42.002 0 23.161 18.841 42 42 42s42-18.841 42-42c0-23.159-18.841-42.002-42-42.002z" />
 <path id="White_Big_Circle" d="m44.052 82.025c-0.51362 0.02041-1.0318 0.03394-1.5522 0.03394s-1.0182-0.01354-1.5228-0.03394a39.552 39.552 0 0 1-38.034-39.497v-0.02489a39.556 39.556 0 0 1 79.099-1.0589c0 0.35298 0.01354 0.70596 0.01354 1.0612s0 0.74895-0.01812 1.1313a39.554 39.554 0 0 1-37.986 38.389z" fill="#fff" stroke-width=".22627"/>
 <path id="Red_Circle" d="m42.502 4.436a38.065 38.065 0 1 0 38.063 38.063 38.065 38.065 0 0 0-38.063-38.063z" fill="#e21a23" />
 <path id="White_Small_Circle" d="m42.421 16.379a26.125 26.125 0 0 1 26.211 26.12 26.125 26.125 0 0 1-26.13 26.13 26.125 26.125 0 0 1-0.081754-52.25z" fill="#fff" />
 <path id="Robin" d="m33.454 65.383a24.722 24.722 0 0 0 2.4007 0.81005 7.1388 7.1388 0 0 1 2.3193-6.1409l-1.5839-1.7468a9.5033 9.5033 0 0 0-3.1361 7.0777zm20.767-36.497c0.30772-0.2489 2.7446-1.6834 2.7446-1.6834l-3.7651-0.57246a8.6684 8.6684 0 0 0-6.908-3.919h-0.02718c-5.4757-0.15612-7.9511 4.3874-8.5032 6.8401-0.1946 0.70143-4.3127 15.477-10.257 25.265a30.999 30.999 0 0 1-2.1066 3.0569h2.9189c0.41182-0.59056 0.81457-1.2015 1.1992-1.835 6.2292-10.259 10.35-25.261 10.522-25.894l0.01354-0.05432c0.04748-0.21044 1.1947-5.1589 6.1341-5.0277a6.3355 6.3355 0 0 1 3.8194 1.4821 8.0167 8.0167 0 0 0-2.4392 0.67881c-1.7083 0.67881-2.8442 1.7558-3.3759 3.1791-1.0001 2.6722 0.53173 5.6567 1.0363 6.6387 3.342 6.5052-2.9053 11.863-8.7362 15.212l-1.0951 0.67881 1.1042 1.4436 2.8261 3.799 0.52268 0.67881 0.8123-0.27831a7.1908 7.1908 0 0 1 9.4874 7.2994 24.294 24.294 0 0 0 2.3577-0.90507 9.5802 9.5802 0 0 0-0.50232-2.6745 9.5282 9.5282 0 0 0-11.277-6.1771l-1.4481-1.9459c3.2492-0.80778 9.8042-2.8623 12.911-6.8265 4.3715-5.5775 2.1156-10.381 0.6245-13.558-0.42991-0.91639-0.50232-1.7242-0.22626-2.4731 0.55888-1.4889 1.197-2.0749 1.6337-2.4279zm-1.8577 12.366a7.399 7.399 0 0 1-0.19233 1.0974 8.0303 8.0303 0 0 1-0.38466 1.1314c-0.10861 0.25795-0.22626 0.51815-0.37561 0.78289-0.07018 0.13123-0.14708 0.26473-0.22626 0.39823a11.961 11.961 0 0 1-0.84625 1.2241c-1.645 2.0975-4.5752 3.609-7.2768 4.634q0.78742-0.67881 1.4594-1.3576 0.45254-0.45254 0.8485-0.92318a16.201 16.201 0 0 0 1.0861-1.4074c0.21496-0.31451 0.41634-0.63128 0.59735-0.95032a11.356 11.356 0 0 0 1.1902-2.9121 9.8676 9.8676 0 0 0 0.22627-1.2807c0-0.10408 0.0226-0.20591 0.02942-0.30546 0.02489-0.3032 0.03394-0.59735 0.02942-0.88018v-0.28057c0-0.18555-0.02041-0.36656-0.03842-0.54079 0-0.08825-0.02041-0.17422-0.0294-0.26021-0.0226-0.17196-0.04977-0.33714-0.07924-0.49779-0.04529-0.24211-0.09725-0.4729-0.15386-0.69238-0.05654-0.21948-0.11766-0.42539-0.18328-0.61772-0.043-0.13123-0.086-0.25342-0.12897-0.37108-0.043-0.11766-0.09048-0.22627-0.1335-0.33714-0.11087-0.26473-0.22627-0.491-0.30773-0.6788l-0.14706-0.28963c-0.12899-0.25342-0.24891-0.49779-0.35526-0.73764-0.10634-0.23984-0.22626-0.52946-0.31678-0.78288a6.9781 6.9781 0 0 1-0.42086-1.7558 3.3691 3.3691 0 0 1 0.16518-1.464 2.9981 2.9981 0 0 1 0.12897-0.28736 2.8035 2.8035 0 0 1 0.16518-0.27152 2.8465 2.8465 0 0 1 0.44122-0.4729 4.5706 4.5706 0 0 1 1.3305-0.78063h0.0226c0.12897-0.0543 0.26247-0.10408 0.39822-0.1516a8.1163 8.1163 0 0 1 2.5161-0.42539 6.1771 6.1771 0 0 0-0.56341 0.76931 5.0096 5.0096 0 0 0-0.62224 1.4775 4.8919 4.8919 0 0 0-0.12445 0.72406 5.3105 5.3105 0 0 0 0.17875 1.8961 6.7881 6.7881 0 0 0 0.41407 1.1178c0.16518 0.35524 0.33487 0.71275 0.49779 1.0793 0.03395 0.07695 0.07018 0.15613 0.10408 0.22627 0.18328 0.42086 0.35751 0.85077 0.51363 1.2897 0.03623 0.10408 0.07018 0.20591 0.10408 0.30999 0.09506 0.28962 0.17875 0.58377 0.2489 0.88018 0.043 0.17422 0.07922 0.34845 0.11087 0.52494a8.1638 8.1638 0 0 1 0.1335 1.4391c0 0.23984-0.01135 0.48421-0.03394 0.71048z" />
 <path id="City" d="m30.517 74.427c0.77383 0.29641 1.5545 0.07924 2.1382-0.59508l1.1313 1.0725c-1.0544 1.1494-2.4731 1.5477-4.0027 0.96164-2.145-0.82135-2.5749-2.8442-1.9436-4.4937 0.65844-1.7242 2.4709-3.0365 4.7087-2.179 1.2897 0.49326 1.9934 1.4164 2.188 2.6225l-1.5839 0.38013a1.8984 1.8984 0 0 0-1.249-1.5364c-1.1721-0.45254-2.0952 0.25569-2.4505 1.1857-0.35524 0.92997-0.10861 2.1382 1.0521 2.5817zm8.3968 3.4597-1.6631-0.21495 0.88018-6.8446 1.6608 0.2127zm8.4783-0.11766-1.6676 0.18327-0.57699-5.2743-2.0364 0.22627-0.17197-1.5839 5.7246-0.62676 0.17423 1.5839-2.0364 0.22627zm8.6751-2.2921-1.1585-2.6926-3.9642-2.6202 1.8577-0.79873 2.2763 1.6925 0.33261-2.817 1.8577-0.801-0.81909 4.6815 1.1585 2.6903z" fill="#fff" />
 <path id="Bristol" d="m67.543 17.39-3.7696 3.7719 1.8509 1.8509-1.1314 1.1313-3.0478-3.032 4.9055-4.9078zm-19.991-10.04 5.6567 1.2716-0.35298 1.568-2.0025-0.45254-1.1698 5.2042-1.6427-0.36882 1.1721-5.2042-2.0025-0.45254zm-6.4645 4.0321c-0.95938-0.22627-2.102-0.58377-2.1518-2.0093-0.049772-1.4753 1.1698-2.3509 2.4889-2.3962a2.9958 2.9958 0 0 1 2.3871 1.0386l-1.0408 1.1766a1.7513 1.7513 0 0 0-1.3893-0.59735c-0.4367 0.013578-0.78516 0.19459-0.77384 0.5521 0.01583 0.48422 0.61545 0.58377 1.2943 0.7399 0.96843 0.22627 2.1292 0.51137 2.179 1.9572 0.05206 1.4956-1.1494 2.3396-2.489 2.3871a3.394 3.394 0 0 1-2.7152-1.1879l1.0883-1.2264a2.093 2.093 0 0 0 1.6721 0.7761c0.45254-0.01583 0.76705-0.20591 0.75574-0.52268-0.0092-0.43897-0.6064-0.5272-1.3056-0.68786zm-6.4215-3.394 1.6834 6.7315-1.6359 0.40954-1.6834-6.7315zm23.362 2.9487a3.5275 3.5275 0 0 0-3.1046 1.9114c-1.0001 1.8056-0.41178 3.9192 1.3757 4.908 1.7875 0.98879 3.892 0.35962 4.8899-1.446s0.4096-3.9188-1.3779-4.9075a3.5275 3.5275 0 0 0-1.7832-0.46579zm0.0712 1.6382c0.30668-0.0012 0.62117 0.07798 0.92451 0.24482 0.97069 0.53399 1.249 1.6521 0.67881 2.6838s-1.6656 1.3914-2.6272 0.85736c-0.9639-0.54305-1.2535-1.6494-0.68102-2.6813 0.39358-0.70936 1.0303-1.1021 1.705-1.1048zm-30.092-2.097c-0.37516-0.0083-0.79018 0.08477-1.2356 0.3089l-2.439 1.2264 3.1178 6.1977 1.4981-0.76056-1.1313-2.249 0.39819-0.19887 2.3781 1.6175 1.7447-0.87767-2.8514-1.8711a1.9527 1.9527 0 0 0 0.31909-2.1906c-0.34068-0.67668-0.97333-1.1843-1.7987-1.2025zm-0.22849 1.6413c0.2264 0.0099 0.41507 0.13496 0.53385 0.37256 0.20591 0.40728 0.04071 0.80094-0.39596 1.0204l-0.76013 0.38228-0.63374-1.2577 0.81447-0.40966c0.15613-0.07809 0.30565-0.1137 0.4415-0.10784zm-7.3954 3.3513c-0.46555-0.0144-0.97459 0.15513-1.4407 0.57937l-2.1496 1.9485 4.684 5.1295 2.0227-1.842c1.0974-1.0024 1.0112-2.4369 0.30978-3.2062-0.46837-0.51362-1.2374-0.7062-2.1062-0.25367a1.4685 1.4685 0 0 0-0.14053-1.8305c-0.29189-0.31225-0.71397-0.5106-1.1795-0.52501zm-0.20726 1.7567c0.14622 0.0029 0.27819 0.07075 0.38227 0.18384a0.63582 0.63582 0 0 1-0.0703 0.90729l-0.63109 0.57452-0.79459-0.87104 0.64523-0.58821c0.16179-0.14706 0.32224-0.20921 0.46845-0.20638zm1.8053 1.6917a0.71048 0.71048 0 0 1 0.5091 0.2276 0.73085 0.73085 0 0 1-0.10606 1.0611l-0.73096 0.66776-0.95501-1.0478 0.76278-0.6947a0.71048 0.71048 0 0 1 0.52014-0.2139z" fill="#fff" />
 <path id="1894" d="m31.549 34.291h-0.87565l-1.783 2.4595v0.75799h1.7898v0.87114h0.86887v-0.87114h0.67881v-0.8123h-0.67881zm-0.86887 2.4052h-0.94807l0.94807-1.3146zm-3.7742-2.4595c-0.85983 0-1.5002 0.57698-1.5002 1.4459a1.2581 1.2581 0 0 0 1.2558 1.335 1.197 1.197 0 0 0 0.99558-0.50459c-0.15386 0.85304-0.80779 1.1087-1.5839 1.1087l-0.01135 0.79873c1.7015 0 2.489-1.025 2.489-2.274-0.0046-1.1268-0.64939-1.9097-1.645-1.9097zm0 2.0228a0.61093 0.61093 0 1 1 0-1.2218 0.61093 0.61093 0 1 1 0 1.2218zm-5.8151 1.4232h3.8398v0.68333h-3.8398zm3.3782-1.9934a0.67881 0.67881 0 0 0 0.41633-0.61093c0-0.4729-0.39144-0.74216-0.93675-0.74216-0.5453 0-0.97748 0.28283-0.97748 0.74669a0.64034 0.64034 0 0 0 0.40049 0.59735 0.67881 0.67881 0 0 0-0.50232 0.67881c0 0.49326 0.43218 0.83719 1.0589 0.83719 0.62676 0 1.0454-0.34845 1.0454-0.83719a0.66297 0.66297 0 0 0-0.50458-0.66976zm-0.53173-0.75122c0.17649 0 0.27831 0.09725 0.27831 0.22627a0.31904 0.31904 0 0 1-0.22627 0.26926l-0.1154-0.03623c-0.15838-0.04748-0.23984-0.13123-0.23984-0.22626 0.0069-0.14934 0.1335-0.23306 0.3032-0.23306zm0.01135 1.6472c-0.2421 0-0.40275-0.09278-0.40275-0.2783a0.35298 0.35298 0 0 1 0.27378-0.31905l0.14029 0.04071c0.22627 0.06336 0.3394 0.16517 0.3394 0.30999 0 0.14481-0.14029 0.24663-0.35072 0.24663zm-1.8034-2.2084h-1.0612v0.62902h0.38239v2.1563h0.67881z" fill="#e21a23" />
 <path id="Robin_Belly" d="m51.786 43.493a8.0303 8.0303 0 0 0 0.38466-1.1313 7.399 7.399 0 0 0 0.19233-1.0974c0.0226-0.23985 0.03394-0.47743 0.03394-0.71048a8.1638 8.1638 0 0 0-0.1335-1.4391c-0.03165-0.17649-0.06789-0.35072-0.11087-0.52494-0.07018-0.29641-0.15386-0.59056-0.2489-0.88018-0.03394-0.10409-0.06789-0.20591-0.10408-0.30999-0.15612-0.43897-0.33036-0.86888-0.51363-1.2897-0.03395-0.07924-0.07018-0.15839-0.10408-0.22627-0.16291-0.36655-0.33262-0.72406-0.49779-1.0793a6.7881 6.7881 0 0 1-0.41407-1.1178 5.3105 5.3105 0 0 1-0.17875-1.8961 4.8919 4.8919 0 0 1 0.12445-0.72406 5.0096 5.0096 0 0 1 0.62224-1.4775 6.1771 6.1771 0 0 1 0.56341-0.76931 8.1163 8.1163 0 0 0-2.5161 0.41181c-0.13576 0.04748-0.26926 0.09725-0.39822 0.1516h-0.0226a4.5706 4.5706 0 0 0-1.3305 0.78063 2.8465 2.8465 0 0 0-0.43896 0.48648 2.8035 2.8035 0 0 0-0.16517 0.27152 2.9981 2.9981 0 0 0-0.12898 0.28735 3.3691 3.3691 0 0 0-0.16517 1.464 6.9781 6.9781 0 0 0 0.42086 1.7558c0.09049 0.25343 0.19685 0.51364 0.31678 0.78289 0.11992 0.26926 0.22626 0.48422 0.35524 0.73764l0.14708 0.28962c0.09049 0.18555 0.19685 0.41181 0.30772 0.67881 0.043 0.10635 0.08821 0.22627 0.1335 0.33714 0.04529 0.11087 0.086 0.23984 0.12898 0.37108 0.0656 0.19233 0.12671 0.40049 0.18328 0.61772 0.05654 0.21721 0.1086 0.45254 0.15385 0.69238 0.02942 0.16064 0.05654 0.32583 0.07924 0.49779 0 0.08601 0.02041 0.17196 0.02942 0.26021 0.01812 0.17423 0.03165 0.35524 0.03842 0.54078v0.28057c0 0.28284 0 0.57698-0.0294 0.88019 0 0.09955-0.01812 0.20138-0.02942 0.30546a9.8676 9.8676 0 0 1-0.22626 1.2807 11.356 11.356 0 0 1-1.1902 2.9121c-0.18102 0.31905-0.3824 0.63582-0.59735 0.95033a16.201 16.201 0 0 1-1.0861 1.4074q-0.39597 0.46611-0.84851 0.92318-0.67881 0.67881-1.4594 1.3576c2.7017-1.025 5.6318-2.5365 7.2768-4.634a11.961 11.961 0 0 0 0.84625-1.2241c0.07924-0.1335 0.15612-0.267 0.22627-0.39823 0.14029-0.26473 0.26473-0.52494 0.37334-0.78289z" fill="#e21a23" />
</svg>
