<svg xmlns="http://www.w3.org/2000/svg" width="128" height="128"><path fill="#60e2ba" d="M83 0c2.453 1.11 2.453 1.11 5.035 2.676l2.926 1.745 3.102 1.891q3.22 1.926 6.445 3.844c1.08.645 2.16 1.29 3.274 1.953 5.673 3.333 11.451 6.468 17.236 9.601l2.353 1.278 2.06 1.11C127 25 127 25 128 26c.146 1.685.223 3.376.272 5.067l.098 3.278q.164 7.449.255 14.9.062 3.93.184 7.859c.116 3.772.166 7.54.203 11.314l.147 3.542c-.008 3.299-.12 5.907-1.159 9.04-2.991 2.84-6.24 4.378-10 6l-2.894 1.712q-3.99 2.334-7.981 4.663l-3.094 1.805c-8.77 5.108-17.58 10.142-26.4 15.16-8.024 4.567-15.99 9.208-23.846 14.058-4.901 2.82-4.901 2.82-7.785 3.602-2.7-1.007-2.7-1.007-5.613-2.77l-3.262-1.932-3.437-2.11q-1.756-1.052-3.517-2.1a1449 1449 0 0 1-6.96-4.17c-4.77-2.849-9.621-5.539-14.49-8.214-6.496-3.61-6.496-3.61-8.721-5.704-.481-2.487-.481-2.487-.454-5.481v-3.397l.063-3.665.018-3.754c.018-3.29.054-6.579.098-9.868.041-3.359.06-6.717.08-10.075Q-.128 54.88 0 45l1.736-.948q3.936-2.153 7.87-4.31l2.73-1.491c4.736-2.598 9.405-5.247 13.977-8.126 6.8-4.269 13.792-8.178 20.79-12.112a1809 1809 0 0 0 19.647-11.2l2.399-1.386 2.21-1.282L73.28 3.03C79.068-.437 79.068-.437 83 0M72.688 25.313l-3.239 1.925L67 29v2q5.281 3 10.571 5.981 1.8 1.017 3.597 2.038 2.581 1.464 5.168 2.919l3.142 1.777C91.825 45.15 91.825 45.15 94 45v32c3.529-1.412 6.549-2.774 9.813-4.625l2.394-1.352L108 70c2.513-16.629 2.513-16.629 0-33-6.294-8.08-16.991-12.132-26.664-14.71-3.602-.447-5.61 1.171-8.648 3.023m-33.864 19.87-1.727 1.014a550 550 0 0 0-5.41 3.24 1965 1965 0 0 1-3.689 2.182A1137 1137 0 0 0 19 57a515 515 0 0 0-.494 13.342 208 208 0 0 1-.185 4.533c-.727 8.656-.727 8.656 2.43 16.318C23.1 92.78 25.395 93.895 28 95q2.135 1.234 4.238 2.52 2.034 1.152 4.075 2.293l2.087 1.193 3.82 2.15c1.977.937 3.604 1.556 5.78 1.844 1.937-.669 1.937-.669 3.793-1.879l2.162-1.295 2.233-1.388 2.173-1.307q2.208-1.338 4.375-2.743C65 95 65 95 67.485 93.866c4.136-2.1 6.098-3.63 7.61-8.114.675-4.135.946-8.07.968-12.252l.044-2.183c.027-6.365-.259-12.043-4.421-17.164C65.279 48.97 57.82 45.514 50 43l-2.473-.826c-3.659-.252-5.578 1.147-8.703 3.01"/></svg>