<svg xmlns="http://www.w3.org/2000/svg" width="256" height="256" fill="none" viewBox="0 0 256 256"><path fill="#563d7c" d="M0 222.991C0 241.223 14.779 256 33.009 256H222.99C241.223 256 256 241.221 256 222.991V33.009C256 14.777 241.221 0 222.991 0H33.009C14.777 0 0 14.779 0 33.009z"/><path fill="#fff" d="M106.157 113.238V76.985h31.912q4.558 0 8.792.76 4.233.759 7.489 2.713t5.21 5.427q1.954 3.474 1.954 8.9 0 9.77-5.861 14.111-5.862 4.342-14.979 4.342zM72.074 50.5v155h75.112q10.42 0 20.298-2.605t17.584-8.032q7.707-5.428 12.265-14.002 4.56-8.576 4.559-20.298 0-14.545-7.055-24.856t-21.383-14.437q10.42-4.993 15.739-12.808 5.318-7.814 5.318-19.538 0-10.854-3.582-18.235-3.582-7.38-10.094-11.831-6.513-4.45-15.631-6.404T145.015 50.5zm34.083 128.515v-42.549h37.122q11.071 0 17.801 5.102 6.73 5.101 6.73 17.041 0 6.079-2.063 9.986-2.062 3.908-5.536 6.187t-8.032 3.257q-4.559.976-9.552.976z"/></svg>