<svg xmlns="http://www.w3.org/2000/svg" width="256" height="290" fill="none" viewBox="0 0 256 290"><g clip-path="url(#a)"><path fill="#264de4" d="M127.844 289.088 23.662 260.166.445-.234h255.11l-23.241 260.359z"/><path fill="#2965f1" d="m212.417 243.547 19.861-222.49H128v245.894z"/><path fill="#ebebeb" d="m53.668 117.636 2.862 31.936H128v-31.936zM47.918 52.995l2.903 31.938h77.18V52.995zM128.001 200.58l-.14.038-35.568-9.605-2.274-25.471h-32.06l4.474 50.146 65.421 18.161.147-.041z"/><path fill="#fff" d="m202.128 117.637 5.765-64.642h-80.002v31.938h45.002l-2.906 32.704h-42.096v31.936h39.327l-3.708 41.42-35.619 9.614v33.227l65.472-18.146.481-5.396 7.505-84.079z"/></g><defs><clipPath id="a"><path fill="#fff" d="M0 0h256v290H0z"/></clipPath></defs></svg>