<svg enable-background="new 0 0 91 91" height="800" viewBox="0 0 91 91" width="800" xmlns="http://www.w3.org/2000/svg"><path d="m88.587 25.783-42.006-19.957c-.672-.317-1.45-.317-2.12 0l-41.999 19.957c-.861.408-1.41 1.277-1.41 2.232 0 .951.549 1.819 1.41 2.229l41.999 19.954c.335.158.697.239 1.059.239.363 0 .726-.081 1.061-.239l42.006-19.954c.861-.41 1.41-1.278 1.41-2.229 0-.955-.549-1.824-1.41-2.232z" fill="#647f94"/><g fill="#45596b"><path d="m45.521 68.085c-.483 0-.965-.105-1.414-.317l-41.998-19.955c-1.643-.781-2.341-2.744-1.562-4.386.78-1.642 2.742-2.341 4.388-1.562l40.584 19.283 40.595-19.283c1.639-.78 3.606-.083 4.386 1.562.78 1.643.083 3.605-1.562 4.386l-42.004 19.955c-.447.211-.93.317-1.413.317z"/><path d="m45.521 84.912c-.483 0-.965-.105-1.414-.317l-41.998-19.954c-1.643-.78-2.341-2.746-1.562-4.389.78-1.645 2.742-2.342 4.388-1.562l40.584 19.282 40.596-19.282c1.642-.78 3.606-.083 4.386 1.562.78 1.643.083 3.608-1.56 4.389l-42.007 19.954c-.447.212-.93.317-1.413.317z"/></g></svg>