<svg fill="none" height="50" viewBox="0 0 50 50" width="50" xmlns="http://www.w3.org/2000/svg" xmlns:xlink="http://www.w3.org/1999/xlink"><clipPath id="a"><path d="m0 0h50v50h-50z"/></clipPath><g clip-path="url(#a)" fill="#2395ec"><path d="m49.507 20.674c-.135-.106-1.4-1.049-4.07-1.049q-1.06.005-2.103.178c-.517-3.493-3.354-5.135-3.485-5.211l-.717-.408-.471.67c-.591.903-1.113 1.834-1.366 2.879-.478 1.994-.188 3.867.84 5.468-1.242.683-3.358.743-3.76.758h-32.727a1.556 1.556 0 0 0 -1.563 1.535c-.039 2.847.367 5.784 1.36 8.457 1.134 2.936 2.823 5.098 5.019 6.421 2.46 1.487 6.458 2.337 10.99 2.337 2.047.006 4.09-.176 6.103-.546a25.8 25.8 0 0 0 7.966-2.854 21.9 21.9 0 0 0 5.436-4.391c2.61-2.915 4.164-6.16 5.32-9.044h.46c2.858 0 4.614-1.128 5.583-2.073a6 6 0 0 0 1.473-2.15l.205-.592z"/><path d="m8.334 22.916h-3.125a1.04 1.04 0 0 1 -1.042-1.041v-3.125c0-.575.467-1.042 1.042-1.042h3.125c.575 0 1.041.467 1.041 1.042v3.125c0 .575-.466 1.041-1.041 1.041m6.25 0h-3.125a1.04 1.04 0 0 1 -1.042-1.041v-3.125c0-.575.467-1.042 1.042-1.042h3.125c.575 0 1.041.467 1.041 1.042v3.125c0 .575-.466 1.041-1.041 1.041m6.25 0h-3.125a1.04 1.04 0 0 1 -1.042-1.041v-3.125c0-.575.467-1.042 1.042-1.042h3.125c.575 0 1.041.467 1.041 1.042v3.125c0 .575-.466 1.041-1.041 1.041m6.25 0h-3.125a1.04 1.04 0 0 1 -1.042-1.041v-3.125c0-.575.467-1.042 1.042-1.042h3.125c.575 0 1.041.467 1.041 1.042v3.125c0 .575-.466 1.041-1.041 1.041m-12.5-6.25h-3.125a1.04 1.04 0 0 1 -1.042-1.041v-3.125c0-.575.467-1.042 1.042-1.042h3.125c.575 0 1.041.467 1.041 1.042v3.125c0 .575-.466 1.041-1.041 1.041m6.25 0h-3.125a1.04 1.04 0 0 1 -1.042-1.041v-3.125c0-.575.467-1.042 1.042-1.042h3.125c.575 0 1.041.467 1.041 1.042v3.125c0 .575-.466 1.041-1.041 1.041m6.25 0h-3.125a1.04 1.04 0 0 1 -1.042-1.041v-3.125c0-.575.467-1.042 1.042-1.042h3.125c.575 0 1.041.467 1.041 1.042v3.125c0 .575-.466 1.041-1.041 1.041m0-6.25h-3.125a1.04 1.04 0 0 1 -1.042-1.041v-3.125c0-.575.467-1.042 1.042-1.042h3.125c.575 0 1.041.467 1.041 1.042v3.125c0 .575-.466 1.041-1.041 1.041m6.25 12.5h-3.125a1.04 1.04 0 0 1 -1.042-1.041v-3.125c0-.575.467-1.042 1.042-1.042h3.125c.575 0 1.041.467 1.041 1.042v3.125c0 .575-.466 1.041-1.041 1.041"/></g></svg>