<svg clip-rule="evenodd" fill-rule="evenodd" stroke-linejoin="round" stroke-miterlimit="2" viewBox="0 0 512 512" xmlns="http://www.w3.org/2000/svg"><g fill-rule="nonzero"><path d="m21.625 256c0 21.62 3.035 42.495 8.195 62.5h304.304c34.516 0 62.5-27.985 62.5-62.5s-27.984-62.5-62.5-62.5h-304.304a249 249 0 0 0 -8.195 62.5" fill="#343741"/><path d="m442.308 125.718a240 240 0 0 0 24.324-25.968c-45.836-57.113-116.105-93.75-195.008-93.75-98.769 0-183.761 57.46-224.32 140.625h341.664a78.63 78.63 0 0 0 53.328-20.907" fill="#fec514"/><path d="m388.968 365.374h-341.652c40.564 83.164 125.54 140.626 224.308 140.626 78.907 0 149.172-36.652 195.008-93.75a238.6 238.6 0 0 0 -24.324-25.968 78.68 78.68 0 0 0 -53.34-20.907" fill="#00bfb3"/></g></svg>