<svg height="128" viewBox="0 0 128 128" width="128" xmlns="http://www.w3.org/2000/svg" xmlns:xlink="http://www.w3.org/1999/xlink"><linearGradient id="a" gradientTransform="matrix(1.58024 0 0 1.42222 0 .61)" gradientUnits="userSpaceOnUse" x1="60.966" x2="19.202" y1="13.48" y2="78.93"><stop offset="0" stop-color="#ffb45b"/><stop offset="1" stop-color="#ff8a00"/></linearGradient><path d="m76.047 6.922c3.8 6.008 1.488 13.66-5.164 17.094l-41.363 21.34c-1.098.566-1.77 1.613-1.77 2.75v33.507c0 1.137.672 2.188 1.77 2.75l32.726 16.887a3.86 3.86 0 0 0 3.508 0l32.726-16.887c1.098-.562 1.77-1.613 1.77-2.75v-20.836l-29.434 14.993c-6.671 3.398-15.132 1.27-18.898-4.754s-1.41-13.664 5.266-17.067l42.113-21.453c12.832-6.535 28.703 1.832 28.703 15.134v36.527c0 8.555-5.078 16.453-13.305 20.7l-37.593 19.393c-8.118 4.188-18.086 4.188-26.204 0l-37.593-19.395c-8.227-4.245-13.305-12.144-13.305-20.699v-38.59c0-8.554 5.078-16.457 13.305-20.699l43.812-22.605c6.653-3.43 15.125-1.344 18.93 4.66m0 0" fill="url(#a)" fill-rule="evenodd"/></svg>