<svg height="488.23227" width="401.74014" xmlns="http://www.w3.org/2000/svg"><g transform="translate(754.7062 -110.7928)"><g transform="matrix(2.914897 0 0 2.914897 -717.5904 128.5015)"><path d="m86.068 0c-24.602 0-29.217 35.041-15.377 35.041 13.838 0 39.98-35.041 15.377-35.041z"/><path d="m45.217 30.699c7.369.45 15.454-28.122 1.604-26.325-13.845 1.797-8.976 25.875-1.604 26.325z"/><path d="m11.445 48.453c5.241-2.307.675-24.872-8.237-18.718-8.908 6.155 2.996 21.024 8.237 18.718z"/><path d="m26.212 36.642c6.239-1.272 6.581-26.864-4.545-22.273-11.128 4.592-1.689 23.547 4.545 22.273z"/><path d="m58.791 93.913c1.107 8.454-6.202 12.629-13.36 7.179-22.787-17.349 37.729-26.004 33.74-49.706-3.311-19.674-63.676-13.617-70.55 17.167-4.653 20.821 19.153 49.707 43.993 49.707 12.22 0 26.315-11.034 28.952-25.012 2.014-10.659-23.699-6.388-22.775.665z"/></g><g transform="matrix(1.098291 0 0 1.098291 41.06056 -50.07504)"><path d="m-565.99523 509.46063c-8.08731.21792-14.47394 3.12448-19.17071 8.69866-4.86385 5.80101-7.31024 13.81651-7.31024 24.03862 0 10.19394 2.44651 18.18745 7.31024 23.98846 4.88761 5.801 11.59815 8.69866 20.15764 8.69866 8.5831 0 15.3105-2.89766 20.17436-8.69866 4.86373-5.80101 7.29358-13.79452 7.29353-23.98846-.00005-10.22211-2.4298-18.23761-7.29353-24.03862-4.86386-5.80075-11.59131-8.69866-20.17436-8.69866-.33434 0-.6582-.00889-.98693 0zm.60221 11.77669c.12927-.00346.25357 0 .38472 0 4.21998 0 7.48996 1.8261 9.8028 5.48697 2.31266 3.66086 3.47944 8.82788 3.47949 15.47362 0 6.61757-1.16692 11.74604-3.47949 15.40691-2.31274 3.66086-5.58286 5.50352-9.8028 5.50352-4.19632 0-7.43983-1.84266-9.75257-5.50352-2.31274-3.66087-3.47944-8.78934-3.47949-15.40691 0-6.64574 1.16684-11.81276 3.47949-15.47362 2.24035-3.54647 5.35963-5.37604 9.36785-5.48697z"/><path d="m-657.35432 568.97161c-7.12362 5.98235-17.72219 5.91366-22.13752 5.91366-8.8932 0-15.93855-2.92879-21.13613-8.78612-5.19765-5.88525-7.7964-13.85456-7.7964-23.90791 0-10.16578 2.64646-18.16325 7.93945-23.99241 5.293-5.82892 12.54098-8.74363 21.74413-8.74363 3.55245 0 6.94991.39433 10.19254 1.18273 3.26638.78841 6.34203 1.95706 9.22697 3.50595l-3.70487 10.9527c-1.62185-.88773-3.4788-1.76286-5.20022-2.37807-2.93262-.98557-5.87712-1.47823-8.83351-1.47823-5.48379 0-9.71581 1.81623-12.69601 5.44892-2.95649 3.60454-4.4347 8.7718-4.4347 15.50204 0 6.67415 1.4305 11.82733 4.29167 15.46003 2.86099 3.6327 7.16068 5.44892 12.19522 5.44892 5.11476 0 8.28269-1.28922 9.97226-2.64762v-10.91144h-11.08087v-10.89809h21.45799"/><path d="m-528.50252 510.59568h17.5241l12.15952 39.37066 12.23105-39.37066h14.81181l6.69132 63.06461h-13.01787l-4.0148-39.4349-12.30257 39.62391h-8.72628l-12.30263-40.9623-4.01479 40.77329h-13.05365l6.69132-63.06461"/><path d="m-455.68828 510.59568h37.15811v12.29183h-23.38928v13.08097h17.97969v10.95369h-17.97969v14.44629h24.17608v12.29183h-37.94491z"/><path d="m-647.94283 510.59568h8.6869l27.44915 37.90083v-37.90083h11.71533v63.06461h-8.6869l-27.4491-37.90083v37.90083h-11.71538z"/></g><text font-family="Bitstream Vera Sans" font-size="25.888361" stroke-width="1pt" x="-406.52405" y="527.92285"><tspan letter-spacing="9.33191109" x="-406.52405" y="527.92285"><tspan letter-spacing=".21289776">TM</tspan></tspan></text></g></svg>