<svg xmlns="http://www.w3.org/2000/svg" width="256" height="290" fill="none" viewBox="0 0 256 290"><path fill="#e44d26" d="m255.11 0-23.242 260.36-104.469 28.962-104.182-28.921L0 0z"/><path fill="#f16529" d="m127.555 267.184 84.416-23.404 19.861-222.489H127.555z"/><path fill="#ebebeb" d="M82.376 85.166h45.18V53.229H47.473l.764 8.568 7.85 88.01h71.469V117.87H85.295zM89.574 165.776h-32.06l4.474 50.146 65.421 18.161.147-.04v-33.228l-.14.037-35.569-9.604z"/><path fill="#fff" d="M127.445 149.808h39.327l-3.707 41.42-35.62 9.614v33.226l65.473-18.145.48-5.396 7.505-84.08.78-8.576h-74.238zM127.445 85.088v.078h77.144l.64-7.179 1.455-16.19.764-8.568h-80.003z"/></svg>