<svg fill="none" height="256" viewBox="0 0 256 256" width="256" xmlns="http://www.w3.org/2000/svg"><path d="m0 0h256v256h-256z" fill="#f7df1e"/><path d="m67.311 213.932 19.59-11.856c3.78 6.701 7.218 12.371 15.465 12.371 7.905 0 12.889-3.093 12.889-15.121v-81.798h24.058v82.139c0 24.917-14.606 36.258-35.915 36.258-19.245 0-30.417-9.967-36.087-21.995m85.07-2.576 19.588-11.341c5.157 8.421 11.859 14.607 23.715 14.607 9.968 0 16.325-4.984 16.325-11.858 0-8.248-6.53-11.17-17.528-15.98l-6.013-2.579c-17.357-7.388-28.871-16.668-28.871-36.258 0-18.044 13.747-31.792 35.229-31.792 15.294 0 26.292 5.328 34.196 19.247l-18.732 12.029c-4.124-7.389-8.591-10.31-15.464-10.31-7.046 0-11.514 4.468-11.514 10.31 0 7.217 4.468 10.139 14.778 14.608l6.014 2.577c20.449 8.765 31.963 17.699 31.963 37.804 0 21.654-17.012 33.51-39.867 33.51-22.339 0-36.774-10.654-43.819-24.574" fill="#000"/></svg>