<svg fill="none" height="512" width="512" xmlns="http://www.w3.org/2000/svg" xmlns:xlink="http://www.w3.org/1999/xlink"><linearGradient id="a"><stop offset="0" stop-color="#0ff"/><stop offset=".44" stop-color="#19aeef"/><stop offset=".82" stop-color="#2e6de2"/><stop offset="1" stop-color="#3654dd"/></linearGradient><linearGradient id="b" gradientUnits="userSpaceOnUse" x1="534.835" x2="39.458" xlink:href="#a" y1="-46.675" y2="491.041"/><linearGradient id="c" gradientUnits="userSpaceOnUse" x1="541.931" x2="46.656" xlink:href="#a" y1="-40.125" y2="497.523"/><path d="m459.3 409.092h-93.139l-153.526-153.526 90.751-90.751a10.914 10.914 0 0 0 1.023-14.329 10.228 10.228 0 0 0 -7.356-3.623 10.236 10.236 0 0 0 -7.655 2.941l-91.092 91.092-95.527-95.527v-94.504a51.175 51.175 0 1 0 -86.657 37.187l65.845 65.846v202.995l-66.869 67.211a51.172 51.172 0 0 0 -11.9 54.099 51.176 51.176 0 0 0 44.311 33.24 51.789 51.789 0 0 0 54.928-52.199v-93.139l95.528-95.527 138.855 138.855v.341h-121.456a10.442 10.442 0 0 0 -10.576 9.212 10.24 10.24 0 0 0 6.067 10.394c1.313.577 2.733.872 4.168.865h142.609l66.869 66.869a51.41 51.41 0 0 0 69.255 2.659 51.411 51.411 0 0 0 8.981-68.722 51.413 51.413 0 0 0 -43.437-21.959zm-377.333 50.152a31.217 31.217 0 0 1 -29.34 31.729 30.719 30.719 0 0 1 -22.6-8.497 30.695 30.695 0 0 1 -9.47-22.209 31.899 31.899 0 0 1 8.87-21.834l52.2-52.199h.34zm0-408.38v74.034h-.34l-51.517-51.516a31.251 31.251 0 0 1 -1.706-42.987 30.705 30.705 0 0 1 44.352-1.024 29.101 29.101 0 0 1 9.211 21.494zm101.669 204.702-80.857 80.857h-.342v-161.714h.342zm277.029 235.407a31.902 31.902 0 0 1 -21.835-8.871l-52.199-52.199v-.341h73.01a31.217 31.217 0 0 1 31.729 29.341 30.885 30.885 0 0 1 -8.551 22.547 30.883 30.883 0 0 1 -22.154 9.523z" fill="url(#b)"/><path d="m355.244 215.308a10.949 10.949 0 0 0 14.329-1.024l127.597-127.256a51.176 51.176 0 0 0 -71.305-73.351l-1.023 1.024-69.94 69.598a10.917 10.917 0 0 0 -1.023 14.329 10.223 10.223 0 0 0 7.356 3.623 10.236 10.236 0 0 0 7.655-2.94l71.305-71.305a30.702 30.702 0 0 1 42.062 2.554 30.702 30.702 0 0 1 -.099 42.14l-127.938 127.937a10.228 10.228 0 0 0 -1.509 11.478 10.24 10.24 0 0 0 2.533 3.192z" fill="url(#c)"/></svg>