<svg fill="none" height="252" viewBox="0 0 256 252" width="256" xmlns="http://www.w3.org/2000/svg"><g fill="#00546b"><path d="m235.649 194.212c-13.918-.347-24.705 1.045-33.752 4.872-2.61 1.043-6.786 1.044-7.134 4.349 1.392 1.393 1.566 3.655 2.784 5.568 2.089 3.479 5.741 8.177 9.047 10.614 3.653 2.783 7.308 5.566 11.134 8.002 6.786 4.176 14.442 6.611 21.053 10.787 3.828 2.434 7.654 5.568 11.482 8.177 1.914 1.391 3.131 3.654 5.567 4.523v-.521c-1.218-1.567-1.566-3.828-2.783-5.568-1.738-1.74-3.479-3.306-5.219-5.046-5.046-6.784-11.309-12.7-18.095-17.571-5.566-3.828-17.746-9.047-20.007-15.485 0 0-.175-.173-.348-.347 3.827-.348 8.35-1.74 12.005-2.784 5.915-1.567 11.308-1.218 17.398-2.784 2.783-.696 5.567-1.566 8.35-2.436v-1.565c-3.13-3.132-5.392-7.307-8.699-10.265-8.872-7.657-18.616-15.137-28.706-21.4-5.394-3.479-12.354-5.742-18.095-8.699-2.087-1.045-5.567-1.566-6.784-3.306-3.133-3.827-4.873-8.872-7.134-13.396-5.044-9.57-9.917-20.182-14.267-30.272-3.13-6.786-5.044-13.572-8.872-19.835-17.92-29.576-37.406-47.496-67.33-65.068-6.438-3.654-14.093-5.22-22.27-7.133-4.348-.175-8.699-.522-13.049-.697-2.783-1.218-5.567-4.523-8.003-6.089-9.915-6.264-35.492-19.833-42.799-1.913-4.698 11.309 6.96 22.443 10.96 28.185 2.96 4.001 6.786 8.524 8.874 13.048 1.218 2.956 1.565 6.09 2.783 9.221 2.785 7.653 5.393 16.18 9.048 23.314 1.914 3.653 4 7.48 6.437 10.786 1.392 1.913 3.827 2.784 4.35 5.915-2.436 3.48-2.61 8.699-4.003 13.049-6.263 19.66-3.827 44.017 5.046 58.457 2.783 4.348 9.395 13.919 18.268 10.265 7.83-3.131 6.09-13.048 8.35-21.747.524-2.089.175-3.48 1.219-4.872v.349c2.436 4.871 4.871 9.569 7.133 14.44 5.394 8.524 14.788 17.398 22.617 23.314 4.177 3.13 7.482 8.524 12.701 10.438v-.523h-.348c-1.044-1.566-2.609-2.261-4.001-3.479-3.131-3.132-6.612-6.959-9.047-10.439-7.306-9.744-13.745-20.529-19.486-31.665-2.784-5.392-5.22-11.308-7.481-16.701-1.045-2.089-1.045-5.22-2.785-6.263-2.61 3.827-6.436 7.133-8.35 11.83-3.304 7.481-3.654 16.702-4.872 26.271-.695.175-.348 0-.696.348-5.566-1.393-7.48-7.133-9.569-12.005-5.22-12.352-6.09-32.186-1.565-46.452 1.218-3.654 6.437-15.136 4.35-18.616-1.044-3.306-4.525-5.22-6.438-7.829-2.262-3.306-4.698-7.48-6.263-11.135-4.176-9.743-6.264-20.53-10.787-30.273-2.088-4.524-5.741-9.22-8.699-13.396-3.305-4.698-6.96-8.003-9.569-13.571-.869-1.913-2.088-5.045-.696-7.133.348-1.391 1.043-1.913 2.436-2.261 2.262-1.915 8.699.521 10.96 1.565 6.438 2.608 11.83 5.046 17.225 8.699 2.435 1.74 5.045 5.046 8.176 5.916h3.654c5.568 1.217 11.83.348 17.05 1.913 9.222 2.957 17.572 7.307 25.054 12.005 22.792 14.44 41.58 34.97 54.282 59.501 2.088 4.001 2.957 7.656 4.871 11.831 3.654 8.525 8.177 17.224 11.831 25.575 3.653 8.176 7.132 16.528 12.352 23.314 2.611 3.652 13.048 5.567 17.746 7.481 3.48 1.565 8.874 2.958 12.005 4.871 5.915 3.652 11.83 7.829 17.398 11.831 2.784 2.087 11.482 6.437 12.005 9.916"/><path d="m58.187 43.023c-2.957 0-5.044.349-7.132.87v.349h.348c1.393 2.783 3.827 4.697 5.566 7.132 1.393 2.784 2.61 5.568 4.003 8.352l.347-.348c2.437-1.74 3.654-4.524 3.654-8.699-1.044-1.218-1.218-2.436-2.088-3.654-1.043-1.741-3.306-2.61-4.698-4.002"/></g></svg>