<svg height="64" viewBox="0 0 64 64" width="64" xmlns="http://www.w3.org/2000/svg"><g stroke-width="1.33332"><path clip-rule="evenodd" d="m34.182448.55488287a4.4893025 4.4893025 0 0 0 -4.32397 0l-22.1598478 12.17991613a5.0892983 5.0892983 0 0 0 -.054666.03067l-2.9173135 1.602652a4.4893025 4.4893025 0 0 0 -2.3266507 3.933306v27.397145c0 1.637322.8906605 3.145312 2.3266507 3.933307l22.3691793 12.295915.08667.04533 2.675982 1.47199a4.4893025 4.4893025 0 0 0 4.32397 0l2.682648-1.474657.08-.04267 22.369179-12.295915a4.4893025 4.4893025 0 0 0 2.327984-3.933307v-27.395804a4.4893025 4.4893025 0 0 0 -2.327988-3.933306l-2.906646-1.599989a3.8146404 3.8146404 0 0 0 -.06533-.03467zm1.42399 31.44378413 20.735858-11.397255.06267-.03467.247998-.135999a1.0359929 1.0359929 0 0 1 1.534656.906661v21.323853c0 .787995-.843994 1.287991-1.533323.90666l-.191998-.103999a7.1906172 7.1906172 0 0 0 -.119999-.068zm-27.9598074-11.426588.0533329.030666 20.7331905 11.395922-20.7345238 11.397255a6.7599535 6.7599535 0 0 0 -.1146659.06667l-.1959986.106662a1.0359929 1.0359929 0 0 1 -1.5346561-.906661v-21.323853c0-.786661.8439942-1.286658 1.5333228-.906661zm47.0636764-4.794634-19.4292-10.6785934a1.0359929 1.0359929 0 0 0 -1.533323.8773273v23.1038411l20.96119-11.521254a1.0359929 1.0359929 0 0 0 0-1.781321zm-45.3730214 1.783988 20.9558554 11.51992v-23.1065074a1.0359929 1.0359929 0 0 0 -1.533322-.875994l-19.4252 10.6772604a1.0359929 1.0359929 0 0 0 0 1.786654zm.025333 30.677122a1.0359929 1.0359929 0 0 1 -.0546661-1.783988l20.9851885-11.534587v23.103841a1.0359929 1.0359929 0 0 1 -1.493323.89866zm24.3838324 9.754599v-23.074507l20.989189 11.53592a1.0359929 1.0359929 0 0 1 -.05733 1.782655l-19.435869 10.682593a1.0359929 1.0359929 0 0 1 -1.49599-.897327v-.03067z" fill="#0d1a2b" fill-rule="evenodd"/><path d="m31.525133 3.5788621a1.0359929 1.0359929 0 0 1 .997326 0l22.159848 12.1799159a1.0359929 1.0359929 0 0 1 0 1.815988l-22.159848 12.179916a1.0346596 1.0346596 0 0 1 -.997326 0l-22.1598476-12.179916a1.0359929 1.0359929 0 0 1 0-1.815988z" fill="#e7c200"/><path d="m5.8546429 21.337407c0-.787995.8439942-1.287992 1.5346561-.907994l22.369179 12.294582a1.0359929 1.0359929 0 0 1 .53733.907994v24.359832c0 .786661-.843994 1.286658-1.534656.906661l-22.3705128-12.293249a1.0359929 1.0359929 0 0 1 -.5359963-.909327z" fill="#ffda18"/><path d="m56.655627 20.429413a1.0359929 1.0359929 0 0 1 1.533323.90666v24.359833a1.0359929 1.0359929 0 0 1 -.535997.907993l-22.369179 12.295916a1.0359929 1.0359929 0 0 1 -1.53599-.907994v-24.359832c0-.377331.206666-.725329.53733-.906661z" fill="#fff"/><path d="m15.249245 40.450608-.0027.03333-5.243964-2.759981.0027-.03333c.121333-1.630655 1.394657-2.335983 2.842647-1.573322 1.44799.759995 2.522649 2.701315 2.401317 4.333303zm8.251943 4.761301-.0027.03333-5.243964-2.758648.0027-.03333c.119999-1.631988 1.393324-2.337317 2.841314-1.574655 1.44799.759994 2.523983 2.701314 2.401317 4.333303z" fill="#0d1a2b"/></g></svg>