<svg xmlns="http://www.w3.org/2000/svg" width="256" height="228" fill="none" viewBox="0 0 256 228"><path fill="#00d8ff" d="M210.483 73.824a171 171 0 0 0-8.241-2.597c.466-1.9.894-3.777 1.274-5.621 6.238-30.281 2.159-54.676-11.769-62.708-13.355-7.7-35.196.329-57.254 19.526a172 172 0 0 0-6.375 5.848 156 156 0 0 0-4.241-3.917C100.759 3.829 77.587-4.822 63.673 3.233 50.33 10.957 46.379 33.89 51.995 62.588a171 171 0 0 0 1.892 8.48c-3.28.932-6.445 1.924-9.474 2.98C17.309 83.498 0 98.307 0 113.668c0 15.865 18.582 31.778 46.812 41.427 2.227.762 4.54 1.482 6.921 2.165a168 168 0 0 0-2.01 9.138c-5.354 28.2-1.173 50.591 12.134 58.266 13.744 7.926 36.812-.221 59.273-19.855a145 145 0 0 0 5.342-4.923 168 168 0 0 0 6.921 6.314c21.757 18.722 43.245 26.282 56.539 18.586 13.731-7.949 18.194-32.003 12.4-61.268a145 145 0 0 0-1.535-6.842c1.62-.479 3.21-.974 4.76-1.488 29.348-9.723 48.443-25.443 48.443-41.52 0-15.417-17.868-30.326-45.517-39.844m-6.365 70.984q-2.102.694-4.3 1.345c-3.24-10.257-7.612-21.163-12.963-32.432 5.106-11 9.31-21.767 12.459-31.957 2.619.758 5.16 1.557 7.61 2.4 23.689 8.156 38.14 20.213 38.14 29.504 0 9.896-15.606 22.743-40.946 31.14m-10.514 20.834c2.562 12.941 2.927 24.641 1.231 33.787-1.525 8.219-4.591 13.698-8.383 15.893-8.067 4.669-25.32-1.401-43.927-17.412a157 157 0 0 1-6.437-5.87c7.214-7.889 14.423-17.06 21.459-27.246 12.376-1.098 24.068-2.894 34.671-5.345a134 134 0 0 1 1.386 6.193M87.276 214.515c-7.882 2.783-14.16 2.863-17.955.675-8.075-4.657-11.432-22.636-6.853-46.752a157 157 0 0 1 1.868-8.499c10.487 2.319 22.094 3.988 34.5 4.994 7.083 9.967 14.5 19.128 21.975 27.15a136 136 0 0 1-4.877 4.492c-9.933 8.682-19.886 14.842-28.658 17.94M50.35 144.747c-12.483-4.267-22.792-9.812-29.858-15.863-6.35-5.437-9.555-10.836-9.555-15.216 0-9.322 13.898-21.212 37.076-29.293a158 158 0 0 1 8.812-2.773c3.204 10.42 7.406 21.315 12.477 32.332-5.137 11.181-9.399 22.249-12.634 32.792a135 135 0 0 1-6.318-1.979m12.378-84.26c-4.811-24.587-1.616-43.134 6.425-47.789 8.564-4.958 27.502 2.111 47.463 19.835a143 143 0 0 1 3.841 3.545c-7.438 7.987-14.787 17.08-21.808 26.988-12.04 1.115-23.565 2.908-34.161 5.309a160 160 0 0 1-1.76-7.887m110.427 27.268a348 348 0 0 0-7.785-12.803c8.168 1.033 15.994 2.404 23.343 4.08-2.206 7.072-4.956 14.466-8.193 22.045a383 383 0 0 0-7.365-13.322m-45.032-43.861c5.044 5.465 10.096 11.566 15.065 18.186a322 322 0 0 0-30.257-.006c4.974-6.559 10.069-12.652 15.192-18.18M82.802 87.83a323 323 0 0 0-7.227 13.238c-3.184-7.553-5.909-14.98-8.134-22.152 7.304-1.634 15.093-2.97 23.209-3.984a322 322 0 0 0-7.848 12.897m8.081 65.352c-8.385-.936-16.291-2.203-23.593-3.793 2.26-7.299 5.045-14.885 8.298-22.6a322 322 0 0 0 7.257 13.246 324 324 0 0 0 8.038 13.147m37.542 31.03c-5.184-5.592-10.354-11.779-15.403-18.433 4.902.192 9.899.291 14.978.291 5.218 0 10.376-.118 15.453-.344-4.985 6.774-10.018 12.97-15.028 18.486m52.198-57.817c3.422 7.799 6.306 15.345 8.596 22.52-7.422 1.694-15.436 3.058-23.88 4.071a382 382 0 0 0 7.859-13.026 349 349 0 0 0 7.425-13.565m-16.898 8.101a359 359 0 0 1-12.281 19.815c-7.597.543-15.445.823-23.444.823-7.967 0-15.716-.248-23.178-.732a311 311 0 0 1-12.513-19.846h.001a308 308 0 0 1-10.923-20.627 310 310 0 0 1 10.89-20.637l-.001.001a307 307 0 0 1 12.413-19.761A310 310 0 0 1 128 72.657c7.926 0 15.743.303 23.354.883a330 330 0 0 1 12.335 19.695 359 359 0 0 1 11.036 20.54 330 330 0 0 1-11 20.722m22.56-122.124c8.572 4.944 11.906 24.881 6.52 51.026q-.518 2.504-1.151 5.09c-10.621-2.452-22.154-4.275-34.229-5.408-7.034-10.017-14.323-19.124-21.64-27.008a160 160 0 0 1 5.888-5.4c18.899-16.447 36.564-22.941 44.612-18.3M128 90.808c12.625 0 22.86 10.235 22.86 22.86s-10.235 22.86-22.86 22.86-22.86-10.235-22.86-22.86 10.235-22.86 22.86-22.86"/></svg>