<svg viewBox="0 0 128 128" xmlns="http://www.w3.org/2000/svg" xmlns:xlink="http://www.w3.org/1999/xlink"><linearGradient id="a"><stop offset="0" stop-color="#ff6533"/><stop offset=".157" stop-color="#ff5633"/><stop offset=".434" stop-color="#ff4333"/><stop offset=".714" stop-color="#ff3733"/><stop offset="1" stop-color="#f33"/></linearGradient><linearGradient id="b" gradientTransform="matrix(1 0 0 -1 0 130)" gradientUnits="userSpaceOnUse" x1="51.359" x2="84.819" xlink:href="#a" y1="61.956" y2="54.135"/><linearGradient id="c" gradientTransform="matrix(1 0 0 -1 0 130)" gradientUnits="userSpaceOnUse" x1="46.123" x2="106.089" y1="73.047" y2="26.551"><stop offset="0" stop-color="#bf3338"/><stop offset="1" stop-color="#f33"/></linearGradient><linearGradient id="d" gradientTransform="matrix(1 0 0 -1 0 130)" gradientUnits="userSpaceOnUse" x1="48.083" x2="56.774" xlink:href="#a" y1="63.893" y2="54.768"/><linearGradient id="e" gradientTransform="matrix(1 0 0 -1 0 130)" gradientUnits="userSpaceOnUse" x1="63.885" x2="61.278" xlink:href="#a" y1="48.184" y2="85.555"/><linearGradient id="f" gradientTransform="matrix(1 0 0 -1 0 130)" gradientUnits="userSpaceOnUse" x1="52.589" x2="64.934" y1="64.534" y2="56.139"><stop offset="0" stop-color="#fbb040"/><stop offset="1" stop-color="#fb8840"/></linearGradient><linearGradient id="g" gradientTransform="matrix(1 0 0 -1 0 130)" gradientUnits="userSpaceOnUse" x1="65.237" x2="52.636" y1="111.996" y2="-26.622"><stop offset="0" stop-color="#fff"/><stop offset="1" stop-color="#fff" stop-opacity="0"/></linearGradient><path d="m111.442 42.825c0-7.3-1.912-14.144-5.28-20.076-8.93-9.191-28.354-11.32-33.177-.043-4.954 11.559 8.321 24.421 14.123 23.4 7.387-1.304-1.304-18.251-1.304-18.251 11.298 21.292 8.691 14.774-11.733 34.329s-41.281 60.814-44.323 62.552c-.13.087-.261.152-.413.217h80.107c1.412 0 2.325-1.499 1.695-2.759l-20.944-41.455a1.9 1.9 0 0 1 .739-2.499c12.254-7.04 20.51-20.25 20.51-35.415" fill="url(#b)"/><path d="m111.442 42.825c0-7.3-1.912-14.144-5.28-20.076-8.93-9.191-28.354-11.32-33.177-.043-4.954 11.559 8.321 24.421 14.123 23.4 7.387-1.304-1.304-18.251-1.304-18.251 11.298 21.292 8.691 14.774-11.733 34.329s-41.281 60.814-44.323 62.552c-.13.087-.261.152-.413.217h80.107c1.412 0 2.325-1.499 1.695-2.759l-20.944-41.455a1.9 1.9 0 0 1 .739-2.499c12.254-7.04 20.51-20.25 20.51-35.415" fill="url(#c)"/><path d="m29.748 124.736c3.042-1.738 23.9-43.019 44.323-62.574s23.031-13.036 11.733-34.329c0 0-43.237 60.618-58.88 90.602" fill="url(#d)"/><path d="m35.832 70.418c29.201-53.687 33.025-59.097 48.234-59.097 7.996 0 16.056 3.607 21.271 10.016-7.105-11.45-19.685-19.12-34.09-19.337h-49.603c-1.043 0-1.89.847-1.89 1.89v99.988c2.955-7.626 7.974-18.533 16.078-33.46" fill="url(#e)"/><path d="m74.071 62.162c-20.423 19.554-41.281 60.836-44.323 62.574s-8.148 1.955-10.863-1.086c-2.89-3.237-7.387-8.474 16.947-53.231 29.201-53.687 33.025-59.097 48.234-59.097 7.996 0 16.056 3.607 21.271 10.016.282.456.565.934.847 1.412-8.93-9.191-28.354-11.32-33.177-.043-4.954 11.559 8.321 24.421 14.123 23.4 7.387-1.304-1.304-18.251-1.304-18.251 11.276 21.27 8.669 14.752-11.755 34.306" fill="url(#f)"/><path d="m38.222 72.808c29.201-53.687 33.025-59.097 48.234-59.097 6.583 0 13.21 2.455 18.251 6.887-5.214-5.953-12.949-9.277-20.641-9.277-15.209 0-19.033 5.41-48.234 59.097-24.334 44.758-19.837 49.994-16.947 53.231.413.456.891.847 1.391 1.173-2.543-3.693-3.672-12.275 17.946-52.014" fill="url(#g)" opacity=".3"/></svg>