<svg xmlns="http://www.w3.org/2000/svg" width="256" height="154" fill="none" viewBox="0 0 256 154"><path fill="url(#a)" d="M128 0Q76.8 0 64 51.2 83.2 25.6 108.8 32c9.737 2.434 16.697 9.499 24.401 17.318C145.751 62.057 160.275 76.8 192 76.8q51.2 0 64-51.2-19.2 25.6-44.8 19.2c-9.737-2.434-16.697-9.498-24.401-17.318C174.249 14.743 159.725 0 128 0M64 76.8q-51.2 0-64 51.2 19.2-25.6 44.8-19.2c9.738 2.434 16.697 9.499 24.401 17.318C81.751 138.857 96.275 153.6 128 153.6q51.2 0 64-51.2-19.2 25.6-44.8 19.2c-9.737-2.434-16.697-9.499-24.401-17.318C110.249 91.543 95.725 76.8 64 76.8"/><defs><linearGradient id="a" x1="-7.111" x2="213.987" y1="49.152" y2="176.632" gradientUnits="userSpaceOnUse"><stop stop-color="#2298bd"/><stop offset="1" stop-color="#0ed7b5"/></linearGradient></defs></svg>