<svg xmlns="http://www.w3.org/2000/svg" width="256" height="256" fill="none" viewBox="0 0 256 256"><path fill="#007acc" d="M0 128v128h256V0H0z"/><path fill="#fff" d="m56.612 128.85-.081 10.483h33.32v94.68h23.569v-94.68h33.32v-10.28c0-5.689-.122-10.443-.284-10.565-.122-.163-20.399-.244-44.983-.204l-44.74.122zM206.566 118.109c6.501 1.625 11.459 4.51 16.01 9.224 2.357 2.519 5.851 7.111 6.136 8.208.081.325-11.053 7.802-17.798 11.987-.244.163-1.219-.894-2.316-2.519-3.292-4.795-6.746-6.867-12.028-7.233-7.762-.528-12.76 3.535-12.719 10.321 0 1.991.284 3.17 1.097 4.795 1.707 3.535 4.876 5.648 14.832 9.956 18.326 7.883 26.169 13.084 31.045 20.48 5.445 8.249 6.664 21.414 2.966 31.207-4.063 10.647-14.141 17.88-28.322 20.277-4.389.772-14.791.65-19.505-.203-10.281-1.829-20.033-6.908-26.047-13.572-2.357-2.601-6.949-9.387-6.664-9.874.122-.163 1.178-.813 2.357-1.504 1.137-.65 5.445-3.129 9.508-5.486l7.355-4.266 1.544 2.275c2.154 3.292 6.868 7.802 9.712 9.306 8.168 4.307 19.383 3.697 24.909-1.26 2.357-2.154 3.332-4.389 3.332-7.68 0-2.966-.365-4.267-1.91-6.502-1.991-2.844-6.054-5.241-17.594-10.24-13.207-5.688-18.896-9.224-24.097-14.831-3.007-3.251-5.851-8.452-7.03-12.8-.975-3.617-1.219-12.678-.447-16.336 2.723-12.759 12.353-21.658 26.25-24.299 4.511-.854 14.995-.528 19.424.569"/></svg>