<svg viewBox="0 0 128 128" xmlns="http://www.w3.org/2000/svg" xmlns:xlink="http://www.w3.org/1999/xlink"><linearGradient id="a" gradientUnits="userSpaceOnUse" x1="1.8732" x2="73.367" y1="11.2396" y2="108.3338"><stop offset="0" stop-color="#41d1ff"/><stop offset="1" stop-color="#bd34fe"/></linearGradient><linearGradient id="b" gradientUnits="userSpaceOnUse" x1="60.7700422" x2="73.7029272" y1="3.6899796" y2="92.4081658"><stop offset="0" stop-color="#ffea83"/><stop offset=".083" stop-color="#ffdd35"/><stop offset="1" stop-color="#ffa800"/></linearGradient><path d="m124.766 19.52-57.442 102.718c-1.187 2.121-4.234 2.133-5.437.024l-58.582-102.73c-1.313-2.302.652-5.087 3.261-4.622l57.504 10.277a3.1 3.1 0 0 0 1.11 0l56.3-10.261c2.598-.473 4.575 2.289 3.286 4.594m0 0" fill="url(#a)"/><path d="m91.46 1.43-42.506 8.328a1.56 1.56 0 0 0 -1.258 1.437l-2.617 44.168a1.563 1.563 0 0 0 1.91 1.614l11.836-2.735a1.562 1.562 0 0 1 1.88 1.836l-3.517 17.219a1.562 1.562 0 0 0 1.985 1.805l7.308-2.223c1.133-.344 2.223.652 1.985 1.812l-5.59 27.047c-.348 1.692 1.902 2.614 2.84 1.164l.625-.968 34.64-69.13c.582-1.16-.421-2.48-1.69-2.234l-12.185 2.352a1.558 1.558 0 0 1 -1.793-1.965l7.95-27.562a1.56 1.56 0 0 0 -1.803-1.965m0 0" fill="url(#b)"/></svg>